<svg width="561" height="137" viewBox="0 0 561 137" fill="none" xmlns="http://www.w3.org/2000/svg">
<path d="M560.086 0.450348H0.379639V136.803H560.086V0.450348Z" fill="#FECC18"/>
<path d="M85.7536 106.098L81.329 97.4302L74.39 99.4217L71.9083 118.619L53.4424 122.912L38.34 115.974L49.4423 30.3066L67.3694 26.2093L82.4719 33.147L119.567 108.824L100.872 113.036L85.7699 106.098H85.7536ZM50.4709 31.2208L39.7767 114.472L55.6466 110.881L58.2426 91.6679L77.5737 87.1462L86.3577 104.923L102.766 101.152L66.6673 27.4826L50.4873 31.2208H50.4709ZM59.663 75.7521C60.3651 71.1978 60.8712 66.8883 61.1651 62.84C61.459 58.7754 61.6223 54.7434 61.6713 50.7114L62.1121 50.6461C63.304 54.4169 64.6591 58.0735 66.1612 61.632C67.6633 65.1743 69.4103 68.9615 71.3858 72.9771L59.663 75.7521Z" fill="#0B4E82"/>
<path d="M125.559 103.029L124.759 22.1447L143.78 20.3818L158.229 28.8701L158.784 82.3307L171.095 80.9105L185.544 89.3989L185.626 94.4919L182.181 101.299L185.659 101.201L185.724 107.388L140.008 111.518L125.559 103.029ZM143.306 84.567L142.686 21.5734L125.885 23.1078L126.669 101.968L170.164 97.9526L170.001 82.1021L143.306 84.5833V84.567Z" fill="#0B4E82"/>
<path d="M166.033 40.9171C169.07 39.4153 171.144 37.3422 172.238 34.6814L165.609 31.2044L166.621 9.41215L187.389 8.59596L198.263 14.3909L197.3 35.2364C197.071 39.9866 195.945 43.9533 193.904 47.1365C191.863 50.3196 189.038 52.9967 185.446 55.2005L174.572 49.4055L166.05 40.9497L166.033 40.9171ZM167.682 10.4079L166.768 30.0781L174.246 29.7516C174.115 32.6573 173.479 35.0568 172.352 36.9667C171.225 38.8766 169.707 40.3132 167.797 41.2926L174.621 48.0833C177.756 46.1571 180.271 43.6922 182.148 40.6723C184.026 37.6687 185.087 33.8979 185.299 29.3599L186.214 9.68963L167.682 10.3915V10.4079Z" fill="#0B4E82"/>
<path d="M215.651 22.9446L183.585 101.005H184.026L199.896 101.315L207.422 83.3264L227.325 83.5549L231.195 102.866L248.06 103.127L232.321 23.1731L215.668 22.9446H215.651ZM230.28 103.862L227.537 94.1328L221.97 94.0185L214.557 112.024L195.553 111.779L181.773 102.131L214.868 21.8182L233.301 22.1284L247.081 31.7758L261.204 103.47L260.387 107.894L262.102 108.024L263.261 113.901L244.044 113.526L230.264 103.878L230.28 103.862ZM212.941 68.2595C214.819 64.0153 216.419 59.967 217.757 56.1146C219.096 52.2458 220.321 48.3771 221.398 44.492L221.839 44.541C222.019 48.475 222.362 52.3438 222.9 56.1472C223.423 59.9507 224.125 64.0153 225.007 68.3901L212.925 68.2759L212.941 68.2595Z" fill="#0B4E82"/>
<path d="M259.114 108.726L273.759 29.066L320.748 32.9511L331.181 41.0804L330.495 46.2224L329.255 60.3914L303.18 58.0082L301.988 61.2403L311.311 62.2687L324.585 72.618L321.45 89.709L297.743 87.6686L291.686 120.577L272.404 119.076L259.13 108.726H259.114ZM307.229 78.2334L309.989 63.2481L286.282 61.2076L288.976 46.5325L316.683 48.9158L319.442 33.9305L274.69 30.1923L260.42 107.861L277.465 109.216L283.539 76.1929L307.246 78.2334H307.229Z" fill="#0B4E82"/>
<path d="M326.316 119.598L330.153 38.795L377.272 36.9015L387.395 43.8554L388.489 63.2481L362.79 64.3255L362.48 67.6555L371.835 67.1332L385.975 76.1929L385.158 93.5288L361.37 94.4103L359.786 127.793L340.471 128.658L326.332 119.598H326.316ZM369.941 83.457L370.66 68.2595L346.871 69.141L347.573 54.2537L375.378 53.2253L376.097 38.0278L331.214 39.8071L331.148 41.0804L327.459 118.586L344.553 117.835L346.137 84.3385L369.925 83.457H369.941Z" fill="#0B4E82"/>
<path d="M454.744 95.9774C455.021 105.119 452.768 112.35 447.985 117.672C443.201 122.977 436.605 126.144 428.164 127.156C427.641 127.237 427.102 127.286 426.547 127.303C425.992 127.319 425.421 127.335 424.816 127.352C421.257 127.45 417.926 127.042 414.808 126.127C411.706 125.213 408.489 124.022 405.175 122.553C401.567 120.871 398.53 119.01 396.097 116.937C393.665 114.88 391.803 112.252 390.513 109.053C389.224 105.853 388.522 101.821 388.375 96.9241L386.726 42.1414L404.93 40.052L404.473 39.8561L393.779 32.1676L405.632 11.6158L419.51 10.0651L430.792 15.0765L444.36 33.0164L440.033 37.1789L441.813 37.0157L451.527 41.3252L452.932 53.8456L454.711 95.961L454.744 95.9774ZM424.212 40.0683L425.698 89.4315C425.845 94.394 425.094 98.0179 423.461 100.303C421.829 102.589 419.478 103.911 416.457 104.27L415.347 104.302C412.604 104.384 410.498 103.405 409.028 101.381C407.559 99.3564 406.759 96.0917 406.612 91.5373L405.093 41.113L387.885 43.0719L389.501 96.9078C389.746 105.07 391.934 111.208 396.065 115.354C400.195 119.5 405.975 121.475 413.388 121.263C413.975 121.247 414.547 121.23 415.118 121.214C415.69 121.198 416.212 121.149 416.735 121.067C424.882 120.202 431.249 117.182 435.837 111.975C440.425 106.767 442.597 99.7808 442.335 90.9823L440.752 38.2237L424.212 40.0683ZM406.351 12.6606L395.232 31.9227L404.228 38.3869L413.175 24.5117L422.89 36.3791L431.658 27.9397L419.02 11.2567L406.367 12.6606H406.351ZM425.29 38.8603L422.808 37.8646L421.42 36.1995L415.984 44.3288L417.453 44.9328L419.004 96.5324C419.037 97.6751 419.118 98.7198 419.265 99.6665C419.412 100.613 419.559 101.495 419.739 102.262C421.42 101.364 422.678 99.8788 423.51 97.7893C424.343 95.7162 424.702 92.9248 424.604 89.4479L423.102 39.1215L425.323 38.844L425.29 38.8603Z" fill="#0B4E82"/>
<path d="M479.789 116.415L471.528 65.0274L464.654 66.4802L452.85 57.7959L450.254 40.0846L504.476 28.0703L519.546 35.1222L522.142 52.8335L502.745 56.7186L511.905 119.108L494.827 123.336L479.773 116.382L479.789 116.415ZM505.831 44.9981L503.545 29.3925L451.495 40.9008L451.56 41.3415L453.781 56.5063L471.544 52.6213L480.72 115.125L497.276 111.501L488.084 48.8995L505.831 45.0144V44.9981Z" fill="#0B4E82"/>
</svg>
