<svg width="484" height="121" viewBox="0 0 484 121" fill="none" xmlns="http://www.w3.org/2000/svg">
<path d="M47.4136 97.5022L42.989 88.8343L36.05 90.8258L33.5683 110.023L15.1025 114.316L0 107.378L11.1024 21.7107L29.0294 17.6134L44.1319 24.551L81.2268 100.228L62.5324 104.44L47.4299 97.5022H47.4136ZM12.1473 22.6248L1.45311 105.876L17.3229 102.285L19.9189 83.072L39.2501 78.5503L48.034 96.3269L64.4427 92.5561L28.3273 18.8867L12.1473 22.6248ZM21.3394 67.1562C22.0415 62.6019 22.5476 58.2924 22.8415 54.2441C23.1354 50.1794 23.2986 46.1475 23.3476 42.1155L23.7884 42.0502C24.9803 45.821 26.3355 49.4775 27.8375 53.0361C29.3396 56.5784 31.0866 60.3655 33.0622 64.3812L21.3394 67.1562Z" fill="#F8CBDF"/>
<path d="M87.2352 94.417L86.4352 13.5324L105.456 11.7695L119.906 20.2579L120.461 73.7184L132.771 72.2982L147.221 80.7866L147.302 85.8796L143.857 92.6867L147.335 92.5887L147.4 98.7754L101.685 102.905L87.2352 94.417ZM104.983 75.9547L104.362 12.9611L87.5617 14.4955L88.3454 93.3559L131.841 89.3403L131.677 73.4898L104.983 75.9711V75.9547Z" fill="#F8CBDF"/>
<path d="M127.71 32.3212C130.747 30.8194 132.82 28.7463 133.914 26.0855L127.285 22.6085L128.298 0.816191L149.066 0L159.939 5.79496L158.976 26.6405C158.747 31.3907 157.621 35.3574 155.58 38.5406C153.539 41.7237 150.715 44.4008 147.123 46.6045L136.249 40.8096L127.726 32.3538L127.71 32.3212ZM129.359 1.81194L128.445 21.4822L135.922 21.1557C135.792 24.0613 135.155 26.4609 134.028 28.3708C132.902 30.2807 131.383 31.7172 129.473 32.6966L136.298 39.4873C139.433 37.5611 141.947 35.0962 143.825 32.0763C145.702 29.0727 146.763 25.3019 146.976 20.7639L147.89 1.0937L129.359 1.79562V1.81194Z" fill="#F8CBDF"/>
<path d="M177.328 14.3323L145.261 92.3928H145.702L161.572 92.703L169.099 74.7141L189.001 74.9427L192.871 94.2538L209.737 94.5149L193.997 14.5608L177.344 14.3323H177.328ZM191.957 95.2495L189.214 85.5205L183.646 85.4062L176.234 103.411L157.229 103.167L143.449 93.5192L176.544 13.206L194.977 13.5161L208.757 23.1635L222.88 94.8577L222.064 99.2815L223.778 99.4121L224.937 105.289L205.72 104.913L191.94 95.2658L191.957 95.2495ZM174.617 59.6472C176.495 55.403 178.095 51.3547 179.434 47.5023C180.773 43.6336 181.997 39.7648 183.075 35.8798L183.516 35.9287C183.695 39.8628 184.038 43.7315 184.577 47.535C185.099 51.3384 185.801 55.4031 186.683 59.7778L174.601 59.6636L174.617 59.6472Z" fill="#F8CBDF"/>
<path d="M220.774 100.13L235.419 20.4701L282.408 24.3551L292.841 32.4844L292.155 37.6264L290.915 51.7955L264.84 49.4122L263.648 52.6443L272.971 53.6727L286.245 64.022L283.11 81.1131L259.403 79.0726L253.346 111.981L234.064 110.48L220.79 100.13H220.774ZM268.889 69.6374L271.649 54.6521L247.942 52.6117L250.636 37.9366L278.343 40.3198L281.102 25.3346L236.35 21.5964L222.08 99.2652L239.125 100.62L245.199 67.5969L268.906 69.6374H268.889Z" fill="#F8CBDF"/>
<path d="M287.992 111.002L291.829 30.1991L338.949 28.3055L349.071 35.2595L350.165 54.6522L324.467 55.7295L324.156 59.0596L333.512 58.5372L347.651 67.597L346.835 84.9329L323.046 85.8144L321.462 119.197L302.148 120.062L288.008 111.002H287.992ZM331.618 74.8611L332.336 59.6636L308.548 60.5451L309.25 45.6577L337.055 44.6293L337.773 29.4319L292.89 31.2112L292.825 32.4844L289.135 109.99L306.229 109.239L307.813 75.7425L331.601 74.8611H331.618Z" fill="#F8CBDF"/>
<path d="M416.42 87.3814C416.698 96.5228 414.445 103.754 409.661 109.076C404.877 114.381 398.281 117.548 389.84 118.56C389.317 118.642 388.779 118.691 388.223 118.707C387.668 118.723 387.097 118.74 386.493 118.756C382.934 118.854 379.603 118.446 376.484 117.532C373.382 116.617 370.166 115.426 366.851 113.957C363.243 112.275 360.206 110.414 357.774 108.341C355.341 106.284 353.48 103.656 352.19 100.457C350.9 97.2574 350.198 93.2254 350.051 88.3282L348.402 33.5455L366.607 31.456L366.149 31.2601L355.455 23.5716L367.309 3.01991L381.187 1.46915L392.469 6.48056L406.036 24.4204L401.71 28.583L403.489 28.4198L413.204 32.7293L414.608 45.2496L416.388 87.3651L416.42 87.3814ZM385.889 31.4723L387.374 80.8356C387.521 85.798 386.77 89.4219 385.138 91.7073C383.505 93.9926 381.154 95.3148 378.133 95.6739L377.023 95.7066C374.28 95.7882 372.174 94.8088 370.705 92.7846C369.235 90.7605 368.435 87.4957 368.288 82.9414L366.77 32.5171L349.561 34.4759L351.178 88.3119C351.422 96.4738 353.61 102.612 357.741 106.758C361.872 110.904 367.651 112.879 375.064 112.667C375.652 112.651 376.223 112.634 376.795 112.618C377.366 112.602 377.889 112.553 378.411 112.471C386.558 111.606 392.926 108.586 397.514 103.379C402.101 98.1715 404.273 91.1849 404.012 82.3863L402.428 29.6277L385.889 31.4723ZM368.027 4.06463L356.908 23.3267L365.904 29.791L374.852 15.9157L384.566 27.7832L393.334 19.3437L380.697 2.66079L368.043 4.06463H368.027ZM386.966 30.2644L384.485 29.2686L383.097 27.6036L377.66 35.7329L379.129 36.3368L380.68 87.9364C380.713 89.0791 380.795 90.1238 380.942 91.0706C381.089 92.0174 381.236 92.8989 381.415 93.6661C383.097 92.7683 384.354 91.2828 385.187 89.1934C386.019 87.1203 386.379 84.3289 386.281 80.8519L384.779 30.5256L386.999 30.2481L386.966 30.2644Z" fill="#F8CBDF"/>
<path d="M441.45 107.819L433.188 56.4315L426.314 57.8843L414.51 49.2L411.914 31.4887L466.136 19.4743L481.206 26.5262L483.802 44.2376L464.405 48.1226L473.565 110.512L456.487 114.74L441.433 107.786L441.45 107.819ZM467.491 36.4021L465.205 20.7966L413.155 32.3049L413.22 32.7456L415.441 47.9104L433.204 44.0254L442.38 106.529L458.936 102.905L449.744 40.3035L467.491 36.4185V36.4021Z" fill="#F8CBDF"/>
</svg>
